<?xml version="1.0" standalone="no"?>
<!DOCTYPE svg PUBLIC "-//W3C//DTD SVG 20010904//EN"
 "http://www.w3.org/TR/2001/REC-SVG-20010904/DTD/svg10.dtd">
<svg version="1.0" xmlns="http://www.w3.org/2000/svg"
 width="64.000000pt" height="64.000000pt" viewBox="0 0 64.000000 64.000000"
 preserveAspectRatio="xMidYMid meet">

<g transform="translate(0.000000,64.000000) scale(0.100000,-0.100000)"
fill="#000000" stroke="none">
<path d="M0 320 l0 -320 320 0 320 0 0 320 0 320 -320 0 -320 0 0 -320z m371
161 c25 -24 159 -262 159 -282 0 -9 -9 -28 -21 -43 -16 -21 -29 -26 -64 -26
-68 0 -95 14 -95 50 0 30 1 30 40 24 60 -10 60 11 0 116 -36 62 -57 90 -70 90
-13 0 -34 -28 -70 -90 -60 -105 -60 -126 0 -116 39 6 40 6 40 -24 0 -36 -27
-50 -95 -50 -36 0 -47 5 -65 27 -14 19 -20 36 -16 54 9 44 149 273 176 286 28
14 57 9 81 -16z"/>
</g>
</svg>
